<svg xmlns="http://www.w3.org/2000/svg" width="1200" height="630" viewBox="0 0 1200 630">
  <defs>
    <linearGradient id="bg" x2="1" y2="1"><stop stop-color="#0d191a"/><stop offset=".58" stop-color="#080b10"/><stop offset="1" stop-color="#05070a"/></linearGradient>
    <linearGradient id="cover" x2="1" y2="1"><stop stop-color="#235c50"/><stop offset=".5" stop-color="#102c29"/><stop offset="1" stop-color="#0a1d1c"/></linearGradient>
    <filter id="shadow"><feDropShadow dx="0" dy="18" stdDeviation="15" flood-opacity=".65"/></filter>
  </defs>
  <rect width="1200" height="630" fill="url(#bg)"/>
  <g opacity=".13" stroke="#47ddbb"><path d="M0 70h1200M0 140h1200M0 210h1200M0 280h1200M0 350h1200M0 420h1200M0 490h1200M0 560h1200"/><path d="M70 0v630M140 0v630M210 0v630M280 0v630M350 0v630M420 0v630M490 0v630M560 0v630M630 0v630M700 0v630M770 0v630M840 0v630M910 0v630M980 0v630M1050 0v630M1120 0v630"/></g>
  <g transform="translate(82 88)">
    <rect width="52" height="42" rx="7" fill="#101722" stroke="#344556"/>
    <path d="M10 21h18M19 12v18" stroke="#5ce8c8" stroke-width="4"/><circle cx="39" cy="16" r="3" fill="#5ce8c8"/><circle cx="44" cy="26" r="3" fill="#e9b949"/>
    <text x="70" y="28" fill="#47ddbb" font-family="monospace" font-size="19" letter-spacing="3">GAME KAT·A·LOG // ONLINE</text>
    <text y="142" fill="#edf5f8" font-family="monospace" font-size="63" font-weight="700">Your game library,</text>
    <text y="216" fill="#edf5f8" font-family="monospace" font-size="63" font-weight="700"><tspan fill="#47ddbb">indexed.</tspan></text>
    <text y="270" fill="#8b9aa8" font-family="monospace" font-size="21">COLLECTIONS  /  WISHLISTS  /  BACKLOGS  /  BOX ART</text>
    <g transform="translate(0 324)" font-family="monospace" font-size="16" font-weight="700">
      <rect width="155" height="42" fill="#112a27" stroke="#2f7768"/><text x="18" y="27" fill="#62e6c8">ANY PLATFORM</text>
      <rect x="168" width="120" height="42" fill="#292311" stroke="#685424"/><text x="189" y="27" fill="#e3b64e">PEGI DATA</text>
      <rect x="301" width="128" height="42" fill="#142238" stroke="#324e72"/><text x="320" y="27" fill="#78aee7">COVER ART</text>
    </g>
    <text y="432" fill="#536472" font-family="monospace" font-size="16">gamekat.net</text>
  </g>
  <g transform="translate(850 80)">
    <g transform="rotate(-17 110 220)"><rect x="5" y="32" width="185" height="360" rx="5" fill="#0d171c" stroke="#37695f"/><rect x="20" y="50" width="155" height="218" fill="url(#cover)"/><circle cx="105" cy="152" r="52" fill="none" stroke="#47ddbb" stroke-opacity=".35" stroke-width="4"/><path d="M48 300h98M48 322h70M48 344h85" stroke="#47ddbb" stroke-opacity=".38" stroke-width="5"/></g>
    <g transform="translate(65 -5) rotate(5 110 220)"><rect x="5" y="32" width="185" height="360" rx="5" fill="#0b1218" stroke="#49a28d"/><rect x="20" y="50" width="155" height="218" fill="#143d36"/><path d="M42 236 98 86l69 150z" fill="none" stroke="#6de6ca" stroke-opacity=".46" stroke-width="6"/><path d="M45 300h104M45 322h82M45 344h93" stroke="#6de6ca" stroke-opacity=".45" stroke-width="5"/></g>
    <g transform="translate(145 44) rotate(20 110 220)"><rect x="5" y="32" width="185" height="360" rx="5" fill="#0d171c" stroke="#37695f"/><rect x="20" y="50" width="155" height="218" fill="#102d2a"/><path d="M43 92h110v110H43zM63 112h70v70H63z" fill="none" stroke="#47ddbb" stroke-opacity=".38" stroke-width="5"/><path d="M45 300h104M45 322h75M45 344h90" stroke="#47ddbb" stroke-opacity=".38" stroke-width="5"/></g>
  </g>
</svg>
